<?xml version="1.0" encoding="UTF-8"?>
<svg width="512" height="512" viewBox="0 0 512 512" fill="none" xmlns="http://www.w3.org/2000/svg">
  <path d="M426.667 85.333H341.333V64C341.333 46.327 334.208 29.344 321.182 16.849C308.156 4.354 290.473 0 272 0H240C221.527 0 203.844 4.354 190.818 16.849C177.792 29.344 170.667 46.327 170.667 64V85.333H85.333C69.192 85.333 53.811 91.667 42.558 102.891C31.306 114.115 25 129.449 25 145.528V451.805C25 467.884 31.306 483.218 42.558 494.442C53.811 505.666 69.192 512 85.333 512H426.667C442.808 512 458.189 505.666 469.442 494.442C480.694 483.218 487 467.884 487 451.805V145.528C487 129.449 480.694 114.115 469.442 102.891C458.189 91.667 442.808 85.333 426.667 85.333ZM213.333 64C213.333 55.131 216.845 46.739 223.346 40.487C229.848 34.235 238.551 30.857 247.467 30.857H264.533C273.449 30.857 282.152 34.235 288.654 40.487C295.155 46.739 298.667 55.131 298.667 64V85.333H213.333V64ZM444.333 451.805C444.333 458.29 441.942 464.488 437.692 469.054C433.441 473.62 427.625 476.19 421.6 476.19H90.4C84.375 476.19 78.559 473.62 74.308 469.054C70.058 464.488 67.667 458.29 67.667 451.805V145.528C67.667 139.043 70.058 132.845 74.308 128.279C78.559 123.713 84.375 121.143 90.4 121.143H421.6C427.625 121.143 433.441 123.713 437.692 128.279C441.942 132.845 444.333 139.043 444.333 145.528V451.805Z" fill="#9333EA"/>
  <path d="M256 427.333C292.8 427.333 324.267 407.467 324.267 384C324.267 360.533 292.8 340.667 256 340.667C219.2 340.667 187.733 360.533 187.733 384C187.733 407.467 219.2 427.333 256 427.333Z" fill="#9333EA"/>
</svg>